<svg width="414" height="118" viewBox="0 0 414 118" fill="none" xmlns="http://www.w3.org/2000/svg">
<path d="M59.8506 81.2696C59.8506 89.5779 54.7487 93.9055 45.9298 93.9055H26.4434V68.1424H45.6206C54.4395 68.1352 59.8506 72.9612 59.8506 81.2696ZM57.2223 35.227C57.2223 43.203 52.4297 47.3644 43.7654 47.3644H26.4434V22.9234H43.7654C52.4297 22.9234 57.2223 27.251 57.2223 35.227ZM65.7254 57.002C76.2449 53.6787 84.1296 44.5323 84.1296 30.4081C84.1296 11.9564 70.9818 0.158591 48.8672 0.158591H0V116.844H50.5745C73.4621 116.844 86.6099 104.374 86.6099 85.0986C86.6032 71.7981 78.4093 59.8269 65.7254 57.002ZM306.21 116.844L262.599 57.3344L304.664 0.151367H273.576L237.386 51.3451V0.151367H210.942V116.836H237.386V65.3104L273.885 116.836H306.21V116.844ZM370.389 57.3344L412.454 0.151367H381.366L345.176 51.3451V0.151367H318.732V116.836H345.176V65.3104L381.675 116.836H414L370.389 57.3344Z" fill="#132C51"/>
<path d="M114.954 106.455L114.9 106.527H115.041C123.054 114.171 134.01 118 146.311 118C158.538 118 169.79 114.164 178.125 106.527H178.199L178.172 106.491C178.199 106.462 178.233 106.448 178.26 106.419H178.118L146.546 74.7461L114.974 106.419H114.907C114.927 106.433 114.941 106.441 114.954 106.455ZM127.907 25.5463H140.651L114.806 0L88.9609 25.5463H101.457V69.8044C101.457 76.4078 102.31 82.3031 103.843 87.5337L127.907 63.7502V25.5463ZM192.402 25.5463H205.247L179.402 0L153.557 25.5463H165.952V64.3354L189.794 87.9022C191.522 82.6571 192.402 76.7979 192.402 69.8044V25.5463Z" fill="#F2CA2D"/>
</svg>
