<svg width="15" height="15" viewBox="0 0 15 15" fill="none" xmlns="http://www.w3.org/2000/svg">
<g filter="url(#filter0_i_899_12650)">
<path d="M7.21573 14.3859C10.8641 14.3859 13.8213 11.4286 13.8213 7.78029C13.8213 4.1312 10.8641 1.17395 7.21573 1.17395C3.56664 1.17395 0.609375 4.1312 0.609375 7.78029C0.609375 11.4286 3.56664 14.3859 7.21573 14.3859Z" fill="#F1C62D" stroke="#F1C62D"/>
<path d="M8.11142 3.62268C7.90446 3.62268 7.70637 3.70471 7.56002 3.85032C7.41368 3.99667 7.33163 4.19478 7.33163 4.40174C7.33163 4.60869 7.41368 4.80676 7.56002 4.95311C7.70637 5.09945 7.90446 5.18151 8.11142 5.18151C8.31763 5.18151 8.51646 5.09945 8.66207 4.95311C8.80842 4.80676 8.89046 4.60869 8.89046 4.40174C8.89046 4.19478 8.80842 3.99667 8.66207 3.85032C8.51646 3.70471 8.31763 3.62268 8.11142 3.62268ZM7.92368 6.10173C7.30577 6.15421 5.61685 7.49942 5.61685 7.49942C5.51263 7.57702 5.54368 7.57261 5.6272 7.71821C5.70998 7.85865 5.69964 7.86826 5.79868 7.801C5.90216 7.733 6.07363 7.62434 6.35968 7.44695C7.46172 6.74034 6.53633 8.37233 6.06328 11.1219C5.87628 12.4834 7.10251 11.782 7.41959 11.5735C7.73151 11.371 8.5682 10.7945 8.65172 10.7368C8.76555 10.6592 8.68276 10.5964 8.59407 10.467C8.53198 10.3783 8.4699 10.4419 8.4699 10.4419C8.13211 10.6651 7.51346 11.133 7.42994 10.8366C7.33164 10.5402 7.96581 8.50835 8.31394 7.10991C8.37085 6.7773 8.52681 6.04999 7.92368 6.10173Z" fill="#042B52"/>
</g>
<defs>
<filter id="filter0_i_899_12650" x="0.109375" y="0.67395" width="14.2109" height="34.2119" filterUnits="userSpaceOnUse" color-interpolation-filters="sRGB">
<feFlood flood-opacity="0" result="BackgroundImageFix"/>
<feBlend mode="normal" in="SourceGraphic" in2="BackgroundImageFix" result="shape"/>
<feColorMatrix in="SourceAlpha" type="matrix" values="0 0 0 0 0 0 0 0 0 0 0 0 0 0 0 0 0 0 127 0" result="hardAlpha"/>
<feOffset dy="20"/>
<feGaussianBlur stdDeviation="10"/>
<feComposite in2="hardAlpha" operator="arithmetic" k2="-1" k3="1"/>
<feColorMatrix type="matrix" values="0 0 0 0 0 0 0 0 0 0 0 0 0 0 0 0 0 0 0.2 0"/>
<feBlend mode="normal" in2="shape" result="effect1_innerShadow_899_12650"/>
</filter>
</defs>
</svg>
