<svg width="7" height="77" viewBox="0 0 7 77" fill="none" xmlns="http://www.w3.org/2000/svg">
<path d="M1.16654 22.5375C0.522542 22.5375 0 22.3694 0 22.1604V0.374759C0 0.168169 0.522542 0 1.16654 0H5.83346C6.47746 0 7 0.168169 7 0.374759V22.1604C7 22.3694 6.47746 22.5375 5.83346 22.5375H1.16654Z" fill="#A2A2A2"/>
<path d="M1.16654 48.8305C0.522542 48.8305 0 48.6623 0 48.4557V26.6701C0 26.4635 0.522542 26.2954 1.16654 26.2954H5.83346C6.47746 26.2954 7 26.4635 7 26.6701V48.4557C7 48.6623 6.47746 48.8305 5.83346 48.8305H1.16654Z" fill="#A1A1A1"/>
<path d="M1.16654 77.0002C0.522542 77.0002 0 76.8321 0 76.6255V65.7339V54.8398C0 54.6333 0.522542 54.4651 1.16654 54.4651H5.83346C6.47746 54.4651 7 54.6333 7 54.8398V76.6255C7 76.8321 6.47746 77.0002 5.83346 77.0002H1.16654Z" fill="#A1A1A1"/>
</svg>
