<svg width="142" height="153" viewBox="0 0 142 153" fill="none" xmlns="http://www.w3.org/2000/svg">
<path d="M141.61 70.7996C141.61 98.5095 125.703 122.499 102.525 134.124C101.214 134.784 99.8842 135.4 98.5282 135.971C96.3514 136.898 94.1299 137.719 91.846 138.424H91.8371C85.1907 140.495 78.1338 141.61 70.8093 141.61C60.6032 141.61 50.9057 139.45 42.1448 135.56L41.7968 135.4C35.0166 132.357 28.8162 128.28 23.3741 123.365C9.01956 110.411 0 91.6578 0 70.7996C0 31.697 31.7067 3.05176e-05 70.8093 3.05176e-05C109.912 3.05176e-05 141.61 31.697 141.61 70.7996Z" fill="#E4ECF4"/>
<path d="M38.8813 78.0285C38.3433 81.6373 37.6109 84.7687 36.6019 86.6011C32.7746 93.5697 17.8125 141.486 17.8125 141.486L20.3274 142.307L20.3417 142.284C20.902 141.562 35.1156 122.986 41.2187 109.028C44.0102 102.645 46.4877 90.7915 48.3772 79.6603C45.2128 79.1045 42.0502 78.5478 38.8813 78.0285Z" fill="#F89A6D"/>
<path d="M20.3398 142.284C20.595 141.687 24.7658 132.167 29.694 125.16C32.8468 120.695 36.6411 110.023 39.049 100.682C38.8831 105.211 38.9285 109.568 39.0704 113.513C36.4493 118.605 33.1243 123.97 30.0053 128.672C25.0691 136.111 20.6476 141.888 20.3398 142.284Z" fill="#E2906B"/>
<path d="M53.2636 57.1293C53.2636 57.1293 30.9582 75.8125 32.2153 93.2735C32.2153 93.2735 52.7069 101.438 54.5358 97.6994C56.3638 93.9605 53.2636 57.1293 53.2636 57.1293Z" fill="#BDDCFD"/>
<path d="M20.3294 142.305C20.3294 142.305 22.293 145.359 21.5873 147.393C20.8817 149.427 17.8332 154.796 15.6983 151.116C13.5634 147.436 12.1904 142.473 17.8127 141.487L20.3294 142.305Z" fill="#F89A6D"/>
<path d="M15.5195 144.785C15.5195 144.785 17.6616 144.785 18.3173 143.406C18.3173 143.406 18.444 146.053 15.5195 144.785Z" fill="#D0876A"/>
<path d="M14.6289 145.87C14.6289 145.87 18.7711 144.87 19.2725 145.495C19.7739 146.119 20.8105 149.312 19.2484 150.584C19.2484 150.584 19.9755 147.307 18.9032 146.015L14.6289 145.87Z" fill="#D0876A"/>
<path d="M31.7215 55.9631L31.5885 55.9283L31.444 55.8855C27.3268 54.6517 24.5986 51.1438 23.5548 45.7401C22.7804 41.7308 23.1944 38.1364 23.2131 37.9856L23.2711 37.4904L23.7707 37.5029L23.9741 37.5056C27.5659 37.5056 30.4448 35.0808 31.2415 34.3376L31.2575 34.3242L31.337 34.2484L31.7223 33.8621L32.1096 34.2466L32.1988 34.3305C33.0044 35.0816 35.8842 37.5056 39.4751 37.5056L39.6785 37.5029L40.1772 37.4904L40.2369 37.9856C40.2548 38.1364 40.6688 41.7308 39.8944 45.7401C38.8515 51.1402 36.126 54.6463 32.0132 55.8837L31.8553 55.9301L31.7215 55.9631Z" fill="#E2EBF4"/>
<path d="M32.4887 54.1582C32.2772 54.2403 32.0542 54.317 31.8285 54.3848L31.7312 54.4133L31.6304 54.3848C22.9606 51.7993 24.5192 38.7098 24.5192 38.7098C28.0556 38.8017 30.8828 36.4135 31.6304 35.714L31.7312 35.6221L31.7366 35.632L31.8285 35.714C32.5806 36.4135 35.4077 38.8017 38.9442 38.7098C38.9442 38.7098 40.4207 51.1231 32.4887 54.1582Z" fill="#BDDCFD"/>
<path d="M108.323 23.6318C108.577 23.3321 108.939 23.1857 109.43 23.1857C109.862 23.1857 110.19 23.3187 110.432 23.5926C110.901 24.1252 110.944 25.0369 110.93 25.5258H107.888C107.853 24.9968 107.897 24.1368 108.323 23.6318ZM112.311 25.5258H111.689C111.705 24.9201 111.636 23.8102 111.004 23.0912C110.614 22.6496 110.085 22.4248 109.43 22.4248C108.711 22.4248 108.144 22.6665 107.742 23.1411C107.134 23.8602 107.094 24.9281 107.128 25.5258H106.5C106.178 25.5258 105.918 25.7863 105.918 26.1075V31.951C105.918 32.2722 106.178 32.5327 106.5 32.5327H112.311C112.632 32.5327 112.893 32.2722 112.893 31.951V26.1075C112.893 25.7863 112.632 25.5258 112.311 25.5258Z" fill="#BDDCFD"/>
<path d="M98.5334 135.971C96.3565 136.898 94.1351 137.719 91.8512 138.424H91.8423C85.1958 140.495 78.139 141.61 70.8145 141.61C60.6084 141.61 50.9108 139.45 42.15 135.56L41.802 135.4C40.1872 129.092 39.3665 121.5 39.081 113.613C38.2424 90.7211 40.6601 53.9479 68.6377 49.3168C79.3434 47.5503 96.5974 68.5067 97.6055 81.6212C98.9972 99.58 99.1935 122.178 98.5334 135.971Z" fill="#042B52"/>
<path d="M98.8047 127.773C98.8243 126.823 98.8413 125.852 98.8547 124.862C98.9341 124.852 99.0126 124.84 99.0911 124.828C99.0233 125.823 98.9305 126.906 98.8047 127.773Z" fill="#9D9BC8"/>
<path d="M68.7932 130.483C63.8302 130.483 57.1953 126.136 57.1953 126.136L69.4819 124.917C69.6032 125.504 69.7139 125.948 69.7139 125.948C69.7139 125.948 72.8399 126.073 77.3907 126.073C83.3734 126.073 91.8194 125.858 98.8485 124.862C98.8352 125.852 98.8182 126.823 98.7986 127.773C98.737 128.202 98.6674 128.577 98.5889 128.864C98.4631 129.326 96.8653 129.468 94.4886 129.468C92.5464 129.468 90.0833 129.373 87.4791 129.278C84.874 129.182 82.128 129.087 79.6167 129.087C75.9651 129.087 72.8096 129.288 71.3144 129.986C70.565 130.336 69.7076 130.483 68.7932 130.483Z" fill="#5B71C5"/>
<path d="M111.091 120.592C109.947 121.978 107.544 123.023 104.438 123.805C92.357 126.848 69.7153 125.948 69.7153 125.948C69.7153 125.948 68.7607 122.122 69.4003 122.104C70.0391 122.086 98.3798 113.849 98.7482 111.697C99.0453 110.005 97.0737 99.8139 97.3351 93.8543C97.3975 92.2431 97.6322 90.9469 98.1095 90.1992C100.368 86.7154 109.579 87.0393 109.579 87.0393C109.579 87.0393 116.69 113.813 111.091 120.592Z" fill="#F89A6D"/>
<path d="M69.112 125.439L69.7445 125.381C69.7445 125.381 69.5723 123.598 65.0286 119.055C60.4841 114.511 60.2539 115.776 59.1619 115.891C58.0691 116.006 51.3967 119.802 53.1801 121.93C54.9635 124.059 69.112 125.439 69.112 125.439Z" fill="#312C58"/>
<path d="M62.7911 127.452C62.7911 127.452 54.5665 123.944 53.1863 122.217C51.8062 120.493 58.4776 116.351 60.5483 116.639C62.6189 116.926 70.154 124.806 69.7507 125.381C69.3484 125.956 63.8269 127.797 62.7911 127.452Z" fill="#242249"/>
<path d="M69.402 122.105C69.402 122.105 67.2261 120.601 65.1394 118.675C63.0545 116.75 65.06 121.243 65.06 121.243C65.06 121.243 53.5086 124.772 58.3217 126.376C63.1339 127.981 69.7161 125.949 69.7161 125.949L69.402 122.105Z" fill="#F89A6D"/>
<path d="M104.435 123.805C102.248 122.554 106.415 119.511 109.98 117.468C114.323 114.988 111.767 95.4217 109.999 95.4217C109.937 95.4217 109.877 95.4449 109.818 95.493C109.338 95.8847 108.288 96.0274 107.012 96.0274C103.601 96.0274 98.5828 95.0068 98.5828 95.0068C97.9985 94.7276 97.5925 94.3315 97.332 93.8542C97.3356 93.7694 97.3392 93.6856 97.3436 93.6026C97.9869 93.8363 98.7755 93.9345 99.6498 93.9345C103.32 93.9345 108.485 92.1993 110.62 91.4204C111.703 96.3254 113.239 104.46 113.237 111.126C113.236 115.173 112.668 118.679 111.088 120.592C109.944 121.978 107.541 123.023 104.435 123.805Z" fill="#E2906B"/>
<path d="M77.0117 51.5112C77.0117 51.5112 107.253 59.3844 111.607 91.0483C111.607 91.0483 100.011 95.683 96.5764 93.2046C93.1416 90.7262 77.0117 51.5112 77.0117 51.5112Z" fill="#BDDCFD"/>
<path d="M62.6797 51.4561L64.2347 43.839L71.0453 43.3439L73.1989 50.1081C73.1989 50.1081 73.306 54.4555 68.5072 54.6268C63.4086 54.8097 62.6966 52.0905 62.6797 51.4561Z" fill="#F89A6D"/>
<path d="M67.4728 49.1311C65.8937 49.1311 63.9141 46.0809 63.9141 46.0809L71.2198 43.9808L72.087 46.8115C72.087 46.8115 69.8959 47.1773 68.2971 48.7751C68.0465 49.0258 67.7663 49.1311 67.4728 49.1311Z" fill="#E2906B"/>
<path d="M54.0756 30.7218C54.0756 30.7218 41.7988 21.5827 57.042 12.7041C60.4642 10.7111 68.3177 11.8253 72.4002 15.3743C79.4534 14.2261 79.5078 22.9967 77.9528 26.7955C74.4931 35.2431 77.5853 43.0601 69.2349 43.9407C64.2344 44.4679 54.0756 30.7218 54.0756 30.7218Z" fill="#1D2149"/>
<path d="M75.1301 32.6703C74.3067 35.7509 74.7581 44.4065 66.0107 46.8911C57.2507 49.3882 54.9062 32.6034 54.982 31.4757C55.007 31.1341 53.7651 28.9055 54.0613 28.9599C61.905 30.4177 62.286 26.8 67.4961 26.7876C67.687 26.7876 72.2476 32.2724 72.4251 32.2724C72.1869 26.7876 74.4146 25.8329 74.4146 25.8329C74.4146 25.8329 76.1632 24.2699 76.4817 27.1052C76.7984 29.9333 75.1301 32.6703 75.1301 32.6703Z" fill="#F89A6D"/>
<path d="M62.2103 38.8146C61.5448 38.8146 61.0728 38.1731 61.0532 38.1446C60.9622 38.0179 60.9908 37.8403 61.1174 37.7484C61.2441 37.6557 61.4216 37.6842 61.5144 37.8109C61.6054 37.9358 61.9141 38.2463 62.2273 38.2454C62.4565 38.2365 62.6858 38.0536 62.908 37.7012C62.9909 37.5683 63.1667 37.5272 63.2996 37.612C63.4334 37.6949 63.4736 37.8707 63.3897 38.0045C63.0605 38.5282 62.6742 38.8003 62.2433 38.8137L62.2103 38.8146Z" fill="#1D2149"/>
<path d="M63.8569 31.8334C63.8569 31.8334 66.9277 32.0921 67.2756 31.8334C67.6236 31.5747 66.7546 30.8119 65.3638 30.9698C63.972 31.1286 63.509 31.7754 63.8569 31.8334Z" fill="#1D2149"/>
<path d="M66.4535 33.5328C66.4535 34.0307 66.1118 34.4321 65.6916 34.4321C65.2723 34.4321 64.9297 34.0307 64.9297 33.5328C64.9297 33.035 65.2723 32.6309 65.6916 32.6309C65.8093 32.6309 65.92 32.6621 66.0208 32.7219C65.8718 32.7665 65.7603 32.9262 65.7603 33.1171C65.7603 33.342 65.9164 33.5257 66.1073 33.5257C66.2474 33.5257 66.3688 33.4258 66.4223 33.2839C66.4428 33.3642 66.4535 33.4463 66.4535 33.5328Z" fill="#1D2149"/>
<path d="M55.5873 31.8334C55.5873 31.8334 58.6581 32.0921 59.006 31.8334C59.3539 31.5747 58.485 30.8119 57.0941 30.9698C55.7033 31.1286 55.2394 31.7754 55.5873 31.8334Z" fill="#1D2149"/>
<path d="M58.1761 33.5328C58.1761 34.0307 57.8344 34.4321 57.4142 34.4321C56.9949 34.4321 56.6523 34.0307 56.6523 33.5328C56.6523 33.035 56.9949 32.6309 57.4142 32.6309C57.532 32.6309 57.6426 32.6621 57.7434 32.7219C57.5944 32.7665 57.4829 32.9262 57.4829 33.1171C57.4829 33.342 57.6391 33.5257 57.83 33.5257C57.9701 33.5257 58.0923 33.4258 58.1449 33.2839C58.1654 33.3642 58.1761 33.4463 58.1761 33.5328Z" fill="#1D2149"/>
<path d="M60.7031 42.4071C60.7031 42.4071 62.4562 43.5847 65.8749 41.8317C65.8749 41.8317 63.0878 45.7393 60.7031 42.4071Z" fill="white"/>
<path d="M74.6833 26.1515C74.6833 26.1515 76.3025 27.2444 75.8885 28.0723C75.4746 28.9002 74.9848 29.8798 74.9848 29.8798C74.9848 29.8798 75.5495 28.562 75.3988 27.8849C75.2489 27.2069 74.2693 26.5289 74.6833 26.1515Z" fill="#1D2149"/>
<path d="M127.35 89.6378H111.389C110.949 86.9783 110.326 84.4946 109.551 82.1724H111.263V81.4024H109.287C108.3 78.6074 107.098 76.0585 105.742 73.7318L106.354 73.3821L104.475 71.0331V70.9938L107.431 71.3462V70.0161L104.475 70.4068V70.3675L106.334 67.9222L105.16 67.2566L103.966 69.9955H103.927L102.714 67.2763L101.672 67.874C97.9685 63.3526 93.7567 59.9714 89.875 57.4939L128.714 57.5225C132.121 57.527 134.876 60.2881 134.872 63.6899L134.838 83.2233C134.28 86.8525 131.14 89.6378 127.35 89.6378ZM114.954 81.4024V82.1724H128.435V81.4024H114.954ZM121.664 70.9751V71.0144L119.805 73.4008L120.92 74.1065L122.192 71.3462H122.231L123.405 74.086L124.638 73.3821L122.76 71.0331V70.9938L125.715 71.3462V70.0161L122.76 70.4068V70.3675L124.619 67.9222L123.445 67.2566L122.251 69.9955H122.212L120.998 67.2763L119.805 67.9614L121.644 70.3488V70.3881L118.768 70.0161V71.3462L121.664 70.9751Z" fill="url(#paint0_linear_1099_49249)"/>
<path d="M94.1439 89.6379H63.4971C62.3123 89.6379 61.1873 89.3614 60.1827 88.8716C57.7704 87.6922 56.0682 85.2709 55.9219 82.4473V82.3741L55.9513 63.6266C55.9558 61.2009 57.3636 59.1044 59.4012 58.0998C60.2211 57.6966 61.1436 57.4735 62.1187 57.4735L79.5047 57.4869C80.9527 60.9252 82.8984 65.493 84.9691 70.2098L83.4676 70.0162V71.3463L85.3616 71.1037C85.4741 71.358 85.5865 71.6131 85.6989 71.8674L84.5043 73.401L85.6204 74.1066L86.1664 72.921C87.4609 75.8374 88.7768 78.7395 90.0276 81.4026H80.6137V82.1725H90.3907C91.7735 85.0943 93.0644 87.6886 94.1439 89.6379ZM63.4417 81.4026V82.1725H76.9229V81.4026H63.4417ZM69.3441 70.9752V71.0145L67.4849 73.401L68.601 74.1066L69.8723 71.3463H69.9116L71.0856 74.0861L72.3186 73.3822L70.4397 71.0332V70.994L73.3954 71.3463V70.0162L70.4397 70.4069V70.3677L72.2989 67.9223L71.1249 67.2568L69.9312 69.9957H69.8919L68.6786 67.2764L67.4849 67.9616L69.3245 70.3489V70.3882L66.4482 70.0162V71.3463L69.3441 70.9752Z" fill="url(#paint1_linear_1099_49249)"/>
<path d="M111.388 89.6379H94.1391C93.0597 87.6886 91.7687 85.0943 90.3859 82.1725H94.0901V81.4026H90.0228C88.772 78.7395 87.4561 75.8374 86.1616 72.921L86.887 71.3464H86.9262L88.1002 74.0861L89.3332 73.3822L87.4552 71.0332V70.994L90.41 71.3464V70.0162L87.4552 70.4069V70.3677L89.3136 67.9223L88.1395 67.2568L86.9458 69.9957H86.9066L85.6932 67.2764L84.4996 67.9616L86.3392 70.3489V70.3882L84.9644 70.2098C82.8937 65.493 80.9479 60.9252 79.5 57.4869L89.8739 57.4941C93.7556 59.9715 97.9674 63.3528 101.671 67.8741L101.519 67.9616L103.359 70.3489V70.3882L100.482 70.0162V71.3464L103.378 70.9752V71.0145L101.519 73.401L102.635 74.1066L103.906 71.3464H103.946L105.12 74.0861L105.741 73.7319C107.097 76.0586 108.299 78.6075 109.286 81.4026H97.7809V82.1725H109.55C110.324 84.4947 110.948 86.9785 111.388 89.6379ZM85.6942 71.8674C85.5817 71.6131 85.4693 71.358 85.3569 71.1037L86.3588 70.9752V71.0145L85.6942 71.8674Z" fill="url(#paint2_linear_1099_49249)"/>
<path d="M63.4414 82.1724H76.9225V81.4022H63.4414V82.1724Z" fill="#EFF4FD"/>
<path d="M90.3942 82.1724H80.6172V81.4024H90.0311C90.1524 81.6603 90.2737 81.9181 90.3942 82.1724Z" fill="#EFF4FD"/>
<path d="M94.0907 82.1724H90.3865C90.2661 81.9181 90.1448 81.6603 90.0234 81.4024H94.0907V82.1724Z" fill="#F8FBFF"/>
<path d="M111.261 82.1724H109.549C109.464 81.9145 109.374 81.6549 109.285 81.4024H111.261V82.1724Z" fill="#FCFDFE"/>
<path d="M109.558 82.1724H97.7891V81.4024H109.294C109.383 81.6549 109.473 81.9145 109.558 82.1724Z" fill="#F8FBFF"/>
<path d="M114.957 82.1724H128.438V81.4022H114.957V82.1724Z" fill="#FCFDFE"/>
<path d="M68.6059 74.1066L67.4898 73.4009L69.349 71.0144V70.9752L66.4531 71.3463V70.0161L69.3294 70.3881V70.3489L67.4898 67.9615L68.6835 67.2763L69.8968 69.9956H69.9361L71.1298 67.2567L72.3038 67.9223L70.4446 70.3676V70.4069L73.4002 70.0161V71.3463L70.4446 70.9939V71.0331L72.3234 73.3822L71.0905 74.086L69.9164 71.3463H69.8772L68.6059 74.1066Z" fill="#EFF4FD"/>
<path d="M85.6176 74.1066L84.5015 73.4009L85.6961 71.8673C85.8522 72.2197 86.0066 72.5694 86.1636 72.9209L85.6176 74.1066ZM83.4648 71.3463V70.0161L84.9663 70.2097C85.0966 70.5077 85.2277 70.8048 85.3589 71.1036L83.4648 71.3463Z" fill="#EFF4FD"/>
<path d="M88.1007 74.0862L86.9266 71.3464H86.8874L86.1621 72.921C86.005 72.5695 85.8507 72.2198 85.6946 71.8674L86.3592 71.0145V70.9753L85.3573 71.1038C85.2262 70.8049 85.0951 70.5078 84.9648 70.2098L86.3396 70.3883V70.349L84.5 67.9616L85.6937 67.2765L86.907 69.9957H86.9462L88.1399 67.2568L89.314 67.9224L87.4557 70.3677V70.407L90.4104 70.0162V71.3464L87.4557 70.994V71.0333L89.3336 73.3823L88.1007 74.0862Z" fill="#F8FBFF"/>
<path d="M105.75 73.7321C104.504 71.5945 103.131 69.6469 101.68 67.8743L102.722 67.2765L103.935 69.9958H103.974L105.168 67.2569L106.342 67.9224L104.483 70.3678V70.407L107.438 70.0163V71.3465L104.483 70.9941V71.0333L106.362 73.3823L105.75 73.7321Z" fill="#FCFDFE"/>
<path d="M102.637 74.1066L101.521 73.4009L103.38 71.0144V70.9752L100.484 71.3463V70.0161L103.361 70.3881V70.3489L101.521 67.9615L101.673 67.8741C103.124 69.6468 104.497 71.5943 105.743 73.7319L105.122 74.086L103.948 71.3463H103.908L102.637 74.1066Z" fill="#F8FBFF"/>
<path d="M120.921 74.1066L119.806 73.4009L121.665 71.0144V70.9752L118.77 71.3463V70.0161L121.646 70.3881V70.3489L119.806 67.9615L121 67.2763L122.213 69.9956H122.252L123.446 67.2567L124.62 67.9223L122.762 70.3676V70.4069L125.717 70.0161V71.3463L122.762 70.9939V71.0331L124.64 73.3822L123.407 74.086L122.233 71.3463H122.194L120.921 74.1066Z" fill="#FCFDFE"/>
<defs>
<linearGradient id="paint0_linear_1099_49249" x1="55.9183" y1="73.5561" x2="134.872" y2="73.5561" gradientUnits="userSpaceOnUse">
<stop stop-color="#C1DEFC"/>
<stop offset="1" stop-color="#6DA1EE"/>
</linearGradient>
<linearGradient id="paint1_linear_1099_49249" x1="55.9219" y1="73.5562" x2="134.875" y2="73.5562" gradientUnits="userSpaceOnUse">
<stop stop-color="#B3D5FB"/>
<stop offset="1" stop-color="#5F98ED"/>
</linearGradient>
<linearGradient id="paint2_linear_1099_49249" x1="55.9171" y1="73.5562" x2="134.871" y2="73.5562" gradientUnits="userSpaceOnUse">
<stop stop-color="#BDDCFD"/>
<stop offset="1" stop-color="#699FEF"/>
</linearGradient>
</defs>
</svg>
