<svg width="37" height="37" viewBox="0 0 37 37" fill="none" xmlns="http://www.w3.org/2000/svg">
<path d="M37 37H0V0H37V37Z" fill="white"/>
<path d="M30.3919 6.12194L6.14841 16.6901C4.95747 17.2088 4.90351 18.8777 6.05668 19.4728L10.9746 22.0111L25.6212 11.8223C25.7731 11.7167 25.9349 11.8423 25.9434 11.9849L13.6733 23.6969C13.3688 23.9883 13.1961 24.3907 13.1961 24.8123V30.2359C13.1961 31.793 15.2412 32.3681 16.0536 31.0399L19.0306 26.169L25.3283 29.4196C26.2155 29.8775 27.2978 29.3834 27.5336 28.4129L32.5063 7.89872C32.8069 6.65999 31.5605 5.61319 30.3919 6.12194Z" fill="#173042"/>
</svg>
