<svg width="37" height="37" viewBox="0 0 37 37" fill="none" xmlns="http://www.w3.org/2000/svg">
<path d="M37 37H0V0H37V37Z" fill="white"/>
<path d="M29.0995 13.3195C28.9916 13.3195 28.8883 13.3342 28.7858 13.3514C27.6935 8.80586 23.6706 5.41844 18.8752 5.41844C14.0806 5.41844 10.0584 8.80471 8.9646 13.3487C8.87056 13.3342 8.77575 13.3195 8.67708 13.3195C7.61488 13.3195 6.75 14.184 6.75 15.2466V17.5591C6.75 18.6217 7.61488 19.4861 8.67708 19.4861C8.91142 19.4861 9.13264 19.438 9.34077 19.3612C9.90733 20.7857 11.2925 21.7986 12.9167 21.7986C13.3422 21.7986 13.6875 21.4535 13.6875 21.0278C13.6875 20.6021 13.3422 20.257 12.9167 20.257C11.6417 20.257 10.6042 19.2197 10.6042 17.9445V15.5007C10.7707 10.9763 14.4113 7.34552 18.8752 7.34552C23.4447 7.34552 27.1617 11.147 27.1617 15.8198C27.1617 15.8391 27.1709 15.8551 27.1725 15.8741V17.5591C27.1725 18.6217 28.0366 19.4861 29.0995 19.4861C30.1617 19.4861 31.0266 18.6217 31.0266 17.5591V15.2466C31.0266 14.184 30.1617 13.3195 29.0995 13.3195Z" fill="#173042"/>
<path d="M25.1988 24.1015H22.9364C22.433 24.1015 21.9613 24.3474 21.673 24.7603L20.0912 27.0243C19.4723 27.9098 18.1587 27.9008 17.5521 27.0074L16.0374 24.7772C15.7507 24.3544 15.2735 24.1015 14.7625 24.1015H12.5409C9.67959 24.1015 7.35938 26.4209 7.35938 29.2823V31.5816C7.35938 32.0073 7.70471 32.3524 8.13021 32.3524H29.6087C30.0342 32.3524 30.3795 32.0073 30.3795 31.5816V29.2823C30.3795 26.4209 28.0601 24.1015 25.1988 24.1015ZM18.8725 22.1744C22.3829 22.1744 25.2281 19.3292 25.2281 15.8198C25.2281 12.3104 22.3829 9.46527 18.8725 9.46527C15.3637 9.46527 12.5186 12.3104 12.5186 15.8198C12.5186 19.3292 15.3637 22.1744 18.8725 22.1744Z" fill="#173042"/>
</svg>
